HIERARCHY
ROOT root
{
	OFFSET 0.000000 0.000000 0.000000
	CHANNELS 6 Xposition Yposition Zposition Zrotation Yrotation Xrotation
	JOINT lhip
	{
		OFFSET 0.058581 -0.082280 -0.017664
		CHANNELS 3 Zrotation Yrotation Xrotation
		JOINT lknee
		{
			OFFSET 0.043451 -0.386469 0.008037
			CHANNELS 3 Zrotation Yrotation Xrotation
			JOINT lankle
			{
				OFFSET -0.014790 -0.426874 -0.037428
				CHANNELS 3 Zrotation Yrotation Xrotation
				JOINT ltoe
				{
					OFFSET 0.041054 -0.060286 0.122042
					CHANNELS 3 Zrotation Yrotation Xrotation
					End Site
					{
						OFFSET 0.000000 0.000000 0.000000
					}
				}
			}
		}
	}
	JOINT rhip
	{
		OFFSET -0.060310 -0.090513 -0.013543
		CHANNELS 3 Zrotation Yrotation Xrotation
		JOINT rknee
		{
			OFFSET -0.043257 -0.383688 -0.004843
			CHANNELS 3 Zrotation Yrotation Xrotation
			JOINT rankle
			{
				OFFSET 0.019056 -0.420046 -0.034562
				CHANNELS 3 Zrotation Yrotation Xrotation
				JOINT rtoe
				{
					OFFSET -0.034840 -0.062106 0.130323
					CHANNELS 3 Zrotation Yrotation Xrotation
					End Site
					{
						OFFSET 0.000000 0.000000 0.000000
					}
				}
			}
		}
	}
	JOINT lowerback
	{
		OFFSET 0.004439 0.124404 -0.038385
		CHANNELS 3 Zrotation Yrotation Xrotation
		JOINT upperback
		{
			OFFSET 0.004488 0.137956 0.026820
			CHANNELS 3 Zrotation Yrotation Xrotation
			JOINT chest
			{
				OFFSET -0.002265 0.056032 0.002855
				CHANNELS 3 Zrotation Yrotation Xrotation
				JOINT lowerneck
				{
					OFFSET -0.013390 0.211636 -0.033468
					CHANNELS 3 Zrotation Yrotation Xrotation
					JOINT upperneck
					{
						OFFSET 0.010113 0.088937 0.050410
						CHANNELS 3 Zrotation Yrotation Xrotation
						End Site
						{
							OFFSET 0.000000 0.000000 0.000000
						}
					}
				}
				JOINT lclavicle
				{
					OFFSET 0.071702 0.114000 -0.018898
					CHANNELS 3 Zrotation Yrotation Xrotation
					JOINT lshoulder
					{
						OFFSET 0.122921 0.045205 -0.019046
						CHANNELS 3 Zrotation Yrotation Xrotation
						JOINT lelbow
						{
							OFFSET 0.255332 -0.015649 -0.022946
							CHANNELS 3 Zrotation Yrotation Xrotation
							JOINT lwrist
							{
								OFFSET 0.265709 0.012698 -0.007375
								CHANNELS 3 Zrotation Yrotation Xrotation
								End Site
								{
									OFFSET 0.000000 0.000000 0.000000
								}
							}
						}
					}
				}
				JOINT rclavicle
				{
					OFFSET -0.082954 0.112472 -0.023707
					CHANNELS 3 Zrotation Yrotation Xrotation
					JOINT rshoulder
					{
						OFFSET -0.113228 0.046853 -0.008472
						CHANNELS 3 Zrotation Yrotation Xrotation
						JOINT relbow
						{
							OFFSET -0.260127 -0.014369 -0.031269
							CHANNELS 3 Zrotation Yrotation Xrotation
							JOINT rwrist
							{
								OFFSET -0.269108 0.006794 -0.006027
								CHANNELS 3 Zrotation Yrotation Xrotation
								End Site
								{
									OFFSET 0.000000 0.000000 0.000000
								}
							}
						}
					}
				}
			}
		}
	}
}
MOTION
Frames: 13
Frame Time: 0.033333
1.219787 -0.284891 0.996739 -88.888417 3.067895 84.913908 5.706073 -1.207785 -2.617491 -8.054591 -4.781731 57.410632 -3.264384 7.769415 -0.702828 0.000000 -0.000000 0.000000 7.917171 1.960442 -9.651219 3.588868 -2.995897 11.690662 -4.666265 -6.439435 -1.944278 0.000000 -0.000000 0.000000 -1.160573 -0.107637 9.639936 2.518849 -5.494034 5.605789 0.337781 -4.025916 2.223780 0.548439 -1.075958 -1.461870 6.663666 -0.183722 -6.822969 -22.984718 -3.945794 8.151106 -56.889743 -6.259334 9.139367 11.372810 -34.191971 10.020811 1.731314 -4.531930 -7.847884 20.579570 0.039107 3.722692 61.904288 -5.361627 9.478850 -16.276399 36.507783 4.407566 5.954957 4.918090 -14.004912 
1.199728 -0.278649 0.996941 -91.426179 2.931080 84.596138 5.548469 -1.931448 -7.351921 -7.004304 -1.531967 64.243167 -1.399711 9.274128 -1.944405 0.000000 -0.000000 0.000000 8.747727 1.499452 -7.670233 3.665712 -1.046458 11.520151 -5.011673 -5.593183 -3.267247 0.000000 -0.000000 0.000000 -1.362994 1.210229 10.077384 2.594521 -5.602197 5.193365 0.264368 -3.759949 2.841018 0.636362 -1.085888 -2.099046 6.527023 -0.191568 -6.274059 -22.916634 -4.005560 7.773486 -57.038421 -6.033969 8.999089 11.729179 -34.404517 9.547310 2.810771 -3.991580 -8.677829 20.694439 0.537283 3.456654 61.479793 -4.431066 9.800591 -16.373835 37.054099 4.613053 5.285620 4.917293 -14.004235 
1.179564 -0.272994 0.998191 -94.075274 2.574386 83.771451 5.018327 -2.763189 -10.883952 -5.962894 0.266861 67.882662 0.184297 10.750969 -4.655228 0.000000 -0.000000 0.000000 9.134711 1.688344 -4.897827 3.657142 0.605871 11.024184 -4.828002 -4.996921 -4.354595 0.000000 -0.000000 0.000000 -1.671984 2.294192 11.236521 2.468904 -5.508589 4.645062 0.270580 -3.332760 3.211647 0.682060 -0.895646 -2.175464 6.560084 -0.089605 -5.966393 -22.754488 -3.966165 7.262036 -57.408964 -5.692150 8.868736 11.929089 -34.352084 8.775680 3.576176 -3.770681 -9.202200 20.704111 0.858252 3.176632 61.257550 -3.754632 10.077398 -16.540080 37.684824 4.567966 4.447629 4.791212 -13.585519 
1.160229 -0.267991 0.999793 -97.120573 1.885350 83.236238 4.196698 -3.719039 -14.296933 -5.379994 1.149159 68.762489 1.765758 11.072330 -6.494650 0.000000 -0.000000 0.000000 9.043954 1.460490 -2.610041 3.574949 2.670204 10.763801 -4.063030 -4.196743 -5.342639 0.000000 -0.000000 0.000000 -2.165896 3.511887 11.922112 2.238113 -5.370671 4.337706 0.215337 -2.815522 3.425488 0.697113 -0.562447 -2.100372 6.562120 -0.163049 -5.825123 -22.530228 -3.914775 6.884268 -57.576657 -5.363652 9.046184 11.963334 -34.323696 8.805251 3.761698 -3.676344 -10.077664 20.511200 1.160398 3.107420 61.336136 -3.033638 10.419049 -16.885828 38.172001 4.276006 4.053323 4.842178 -13.412813 
1.141603 -0.263174 1.000893 -100.370026 1.161531 82.890139 3.581720 -4.993741 -17.090607 -4.691030 1.722941 66.682939 3.531305 11.434236 -9.206516 0.000000 -0.000000 0.000000 8.693702 1.511847 -0.586286 3.489727 4.506320 10.596120 -2.804300 -3.155038 -6.499680 0.000000 -0.000000 0.000000 -2.514043 4.706077 12.332171 1.880663 -5.175815 4.206973 0.066913 -2.236758 3.607434 0.816839 -0.058059 -1.921390 6.502338 -0.336082 -5.920111 -22.450952 -3.999950 6.661399 -57.389701 -4.938957 9.230075 11.960425 -34.599739 8.746068 3.330209 -3.774487 -9.894941 20.319734 1.625844 3.185506 61.513214 -2.415167 10.608186 -17.288169 38.721422 3.569780 3.984211 4.886565 -13.517621 
1.122934 -0.259350 1.001148 -103.882580 0.748305 82.518385 3.425711 -6.003396 -19.343066 -4.545462 1.576434 62.566435 3.327749 12.627711 -9.283765 0.000000 -0.000000 0.000000 8.415111 1.447324 1.272502 3.480733 6.358173 10.820761 -2.116136 -1.945196 -7.883013 0.000000 -0.000000 0.000000 -2.127915 5.600015 12.768374 1.432175 -4.850507 3.973895 -0.362678 -1.513235 4.052678 0.735115 0.721458 -2.206423 6.382041 -0.561079 -5.753321 -22.485002 -3.910883 5.994237 -57.133119 -4.261411 9.660147 11.958269 -35.097616 8.783633 3.361317 -3.704502 -9.363609 19.998699 2.056125 3.207857 61.483071 -1.864708 10.914222 -17.161435 39.478938 3.391445 3.794865 4.401775 -14.057323 
1.104534 -0.255314 1.001370 -107.086966 0.150266 82.362054 3.330234 -6.864369 -20.737895 -3.444496 1.385915 56.107503 3.778652 12.569815 -10.048630 0.000000 -0.000000 0.000000 7.879339 1.507299 2.807740 3.461686 8.159743 11.248609 -1.596841 -0.983288 -9.109549 0.000000 -0.000000 0.000000 -2.149046 6.409301 13.169262 0.989410 -4.566557 3.875169 -0.497649 -0.979143 4.025757 0.599841 1.598385 -2.313737 6.185070 -0.778647 -5.619068 -22.454692 -3.724321 5.718007 -57.040493 -3.779523 9.838066 12.054655 -35.344044 8.817648 3.152682 -3.920657 -8.841469 19.787273 2.543763 3.436464 61.458840 -1.344987 11.195364 -17.183806 39.983667 3.255396 3.817039 4.512624 -13.927787 
1.085022 -0.251454 1.000870 -109.889627 -0.138745 82.207914 3.287762 -7.265127 -21.290185 -2.730051 -0.036872 48.032048 3.836933 12.400586 -10.419325 0.000000 -0.000000 0.000000 7.498769 1.450735 4.411248 3.401931 9.757626 11.573265 -1.187748 -0.294950 -10.333031 0.000000 -0.000000 0.000000 -1.877008 6.794922 13.416364 0.648316 -4.321299 3.858407 -0.589195 -0.451294 4.119039 0.328907 2.186095 -2.411834 5.860584 -0.950807 -5.400909 -22.575359 -3.488895 5.374451 -57.133592 -3.290785 10.001089 12.225673 -35.059263 9.035043 3.051300 -4.453186 -8.438160 19.528110 2.913175 3.542510 61.361425 -0.930001 11.305030 -17.177159 40.511851 3.501975 4.054930 4.977090 -13.492732 
1.065668 -0.247725 0.999748 -112.002221 -0.312868 82.325226 3.372541 -7.612238 -21.563737 -2.756248 -2.704813 39.075093 3.611502 11.690994 -9.957703 0.000000 -0.000000 0.000000 7.031930 1.407498 5.677703 3.547416 11.024718 11.762263 -0.952490 0.091594 -11.421895 0.000000 -0.000000 0.000000 -1.647838 6.971292 13.440941 0.428291 -4.226208 3.793727 -0.602044 -0.230555 4.225308 0.100803 2.856240 -2.473966 5.416933 -1.267537 -5.100443 -22.590166 -3.168989 5.139501 -57.323549 -3.036399 10.192013 12.425402 -34.745710 9.003966 2.709343 -4.540222 -8.755220 19.377901 2.994133 3.615991 61.228027 -0.456117 11.450568 -17.172233 41.000950 3.660422 4.221810 5.551442 -13.180370 
1.045441 -0.243326 0.998221 -113.620763 -0.250019 82.698183 3.615254 -7.098814 -21.583508 -2.626217 -5.136212 30.108512 3.003156 10.062485 -9.152245 0.000000 -0.000000 0.000000 6.614860 1.108698 6.736696 3.831806 11.968725 11.999260 -0.765391 0.702207 -12.594430 0.000000 -0.000000 0.000000 -1.439173 6.944840 13.069378 0.359293 -4.218238 3.917683 -0.560710 -0.076721 4.187427 -0.064215 3.626347 -2.353332 5.106084 -1.562965 -5.025217 -22.613866 -2.880088 4.912165 -57.577352 -2.660317 10.393201 12.566799 -34.312464 9.206380 2.208748 -4.381993 -8.834206 19.436641 2.897273 3.661348 60.884487 -0.259522 11.426589 -16.980582 41.699319 3.756343 4.316806 6.104266 -13.041987 
1.023791 -0.238586 0.995654 -115.040895 -0.399984 83.029408 3.919123 -6.583570 -21.395023 -3.379486 -7.421888 22.383408 2.878937 8.081025 -8.298812 0.000000 -0.000000 0.000000 5.735152 0.590511 7.954487 4.266679 12.720293 12.213257 -0.619249 1.568934 -13.826974 0.000000 -0.000000 0.000000 -1.500599 7.019584 12.647723 0.283438 -4.302995 4.024972 -0.500145 0.000271 4.007618 -0.118144 4.286534 -2.115906 4.898577 -1.801813 -4.581272 -22.655389 -2.820755 5.065436 -57.684561 -2.173606 10.451666 12.697796 -34.007074 9.343781 2.061709 -4.334201 -8.830828 19.385896 2.948548 3.937354 60.829066 -0.243630 11.287258 -16.840916 42.184496 3.985925 4.346943 6.426307 -12.877867 
1.002290 -0.233226 0.992543 -116.147797 -0.396310 83.798015 4.535143 -5.768651 -21.747655 -4.020453 -7.884723 16.486571 2.258967 6.324475 -7.654511 0.000000 -0.000000 0.000000 5.225305 0.446087 8.537344 4.619980 13.039591 12.682755 -0.535588 1.868235 -14.887611 0.000000 -0.000000 0.000000 -1.833713 7.020092 11.749462 0.499410 -4.433161 4.175068 -0.403604 -0.010451 3.948903 -0.031250 4.979765 -2.167728 4.594592 -1.972976 -4.314102 -22.727521 -2.648519 5.289526 -57.684454 -1.960826 10.515917 12.678709 -33.656995 9.636017 2.197857 -4.239266 -8.591886 19.408310 2.794335 4.099296 60.690745 -0.215645 11.494011 -16.801482 42.445447 4.412710 4.211694 6.131736 -13.055899 
0.979148 -0.228253 0.989107 -116.803432 -0.476106 84.435477 4.427777 -5.108379 -21.742397 -4.139900 -7.821516 12.467975 2.190361 6.088045 -6.995650 0.000000 -0.000000 0.000000 4.637061 0.236504 9.321506 4.803973 13.225387 13.151377 -0.390049 2.183514 -16.070460 0.000000 -0.000000 0.000000 -2.045705 6.873806 11.031682 0.585135 -4.596950 4.105948 -0.430121 0.017543 3.943755 -0.005031 5.229598 -2.008477 4.556448 -2.042143 -4.113135 -22.668950 -2.469845 5.189766 -57.772528 -1.751560 10.681874 12.636116 -33.031997 9.464917 2.841279 -4.365734 -8.593987 19.418112 2.416743 4.142588 60.699343 -0.274400 11.658328 -16.574038 42.466838 4.716196 4.069871 6.197828 -12.891623 
